<?xml version="1.0" encoding="utf-8"?>
<!-- Generator: Adobe Illustrator 24.3.0, SVG Export Plug-In . SVG Version: 6.00 Build 0)  -->
<svg version="1.1" id="Layer_1" xmlns="http://www.w3.org/2000/svg" xmlns:xlink="http://www.w3.org/1999/xlink" x="0px" y="0px"
	 viewBox="0 0 644.1 214.9" style="enable-background:new 0 0 644.1 214.9;" xml:space="preserve">
<style type="text/css">
	.st0{fill:#2A6171;}
	.st1{fill:url(#XMLID_3_);}
</style>
<g>
	<g id="XMLID_570_">
		<g id="XMLID_682_">
			<g>
				<path id="XMLID_113_" class="st0" d="M242.1,118.6l5.2-11.6c6.4,5.2,16.6,8.8,26.5,8.8c12.5,0,17.8-4.5,17.8-10.4
					c0-17.3-47.7-6-47.7-35.8c0-13,10.3-24,32.3-24c9.6,0,19.7,2.5,26.7,7.1l-4.7,11.6c-7.2-4.2-15.1-6.3-22.1-6.3
					c-12.4,0-17.4,4.8-17.4,10.9c0,17.1,47.6,6,47.6,35.4c0,12.8-10.4,23.8-32.4,23.8C261.3,128.2,248.8,124.3,242.1,118.6z"/>
				<path id="XMLID_111_" class="st0" d="M319.6,42H334v85.1h-14.3V42z"/>
				<path id="XMLID_108_" class="st0" d="M404,91.2v35.9h-13.5v-7.5c-3.4,5.3-10.1,8.3-19.3,8.3c-14,0-22.8-7.7-22.8-18.3
					c0-10.2,6.9-18.2,25.4-18.2h15.8v-0.9c0-8.4-5-13.3-15.2-13.3c-6.9,0-14,2.3-18.6,6.1l-5.6-10.4c6.5-5,16-7.6,25.9-7.6
					C393.8,65.2,404,73.5,404,91.2z M389.7,107.9v-7.1h-14.8c-9.7,0-12.4,3.7-12.4,8.1c0,5.2,4.4,8.5,11.7,8.5
					C381.2,117.4,387.3,114.2,389.7,107.9z"/>
				<path id="XMLID_106_" class="st0" d="M415.3,121l5.5-10.9c5.4,3.6,13.6,6.1,21.3,6.1c9.1,0,12.8-2.5,12.8-6.8
					c0-11.7-37.8-0.7-37.8-25.1c0-11.6,10.4-19.1,26.9-19.1c8.1,0,17.4,1.9,22.9,5.3l-5.5,10.9c-5.8-3.4-11.7-4.6-17.5-4.6
					c-8.7,0-12.8,2.9-12.8,6.9C431.2,96,469,85,469,109c0,11.5-10.5,18.9-27.7,18.9C431.1,127.9,420.9,124.9,415.3,121z"/>
				<path id="XMLID_104_" class="st0" d="M554,46.8v80.2h-14.9V92.7h-41.5v34.4h-14.9V46.8h14.9v33.1h41.5V46.8H554z"/>
				<path id="XMLID_101_" class="st0" d="M628.1,127.1l-16.4-23.5c-1,0.1-2.1,0.1-3.1,0.1h-18.1v23.4h-14.9V46.8h33
					c21.1,0,34.2,10.8,34.2,28.5c0,12.2-6.2,21.1-17.1,25.3l18.5,26.4H628.1z M607.9,59.4h-17.4v32h17.4c13.1,0,19.8-6,19.8-16
					C627.8,65.3,621,59.4,607.9,59.4z"/>
			</g>
		</g>
		<g id="XMLID_571_">
			<path id="XMLID_680_" class="st0" d="M256.6,169.6v3h-14.4v-19.3h14.1v3h-10.5v5h9.3v2.9h-9.3v5.3H256.6z"/>
			<path id="XMLID_678_" class="st0" d="M279.6,153.4l-8.4,19.3h-3.5l-8.4-19.3h3.9l6.4,14.9l6.5-14.9H279.6z"/>
			<path id="XMLID_676_" class="st0" d="M297.7,169.6v3h-14.4v-19.3h14.1v3h-10.5v5h9.3v2.9h-9.3v5.3H297.7z"/>
			<path id="XMLID_673_" class="st0" d="M315.9,172.6L312,167c-0.2,0-0.5,0-0.7,0h-4.3v5.6h-3.6v-19.3h7.9c5.1,0,8.2,2.6,8.2,6.9
				c0,2.9-1.5,5.1-4.1,6.1l4.4,6.3H315.9z M311.1,156.4h-4.2v7.7h4.2c3.1,0,4.8-1.4,4.8-3.9C315.8,157.8,314.2,156.4,311.1,156.4z"
				/>
			<path id="XMLID_671_" class="st0" d="M333.1,165.8v6.8h-3.6v-6.7l-7.6-12.5h3.8l5.6,9.4l5.7-9.4h3.5L333.1,165.8z"/>
			<path id="XMLID_668_" class="st0" d="M342.4,163c0-5.7,4.4-9.9,10.4-9.9c6,0,10.4,4.2,10.4,9.9s-4.4,9.9-10.4,9.9
				C346.8,172.9,342.4,168.7,342.4,163z M359.6,163c0-3.9-2.9-6.8-6.8-6.8c-3.9,0-6.8,2.8-6.8,6.8c0,3.9,2.9,6.8,6.8,6.8
				C356.7,169.8,359.6,166.9,359.6,163z"/>
			<path id="XMLID_666_" class="st0" d="M385.7,153.4v19.3h-2.9l-10.6-13v13h-3.5v-19.3h2.9l10.6,13v-13H385.7z"/>
			<path id="XMLID_664_" class="st0" d="M407,169.6v3h-14.4v-19.3h14.1v3h-10.5v5h9.3v2.9h-9.3v5.3H407z"/>
			<path id="XMLID_662_" class="st0" d="M439,153.4v19.3h-3.6v-8.3h-10v8.3h-3.6v-19.3h3.6v8h10v-8H439z"/>
			<path id="XMLID_659_" class="st0" d="M458.3,168.2h-9.6l-1.9,4.5h-3.7l8.7-19.3h3.5l8.7,19.3h-3.7L458.3,168.2z M457.1,165.4
				l-3.6-8.4l-3.6,8.4H457.1z"/>
			<path id="XMLID_657_" class="st0" d="M466.4,170.6l1.2-2.8c1.5,1.2,4,2.1,6.4,2.1c3,0,4.3-1.1,4.3-2.5c0-4.2-11.4-1.4-11.4-8.6
				c0-3.1,2.5-5.8,7.8-5.8c2.3,0,4.7,0.6,6.4,1.7l-1.1,2.8c-1.7-1-3.6-1.5-5.3-1.5c-3,0-4.2,1.2-4.2,2.6c0,4.1,11.4,1.4,11.4,8.5
				c0,3.1-2.5,5.7-7.8,5.7C471,172.9,468,172,466.4,170.6z"/>
			<path id="XMLID_641_" class="st0" d="M508.7,168.2h-9.6l-1.9,4.5h-3.7l8.7-19.3h3.5l8.7,19.3h-3.7L508.7,168.2z M507.5,165.4
				l-3.6-8.4l-3.6,8.4H507.5z"/>
			<path id="XMLID_583_" class="st0" d="M531.6,156.4h-6.4v-3h16.3v3h-6.4v16.2h-3.6V156.4z"/>
			<path id="XMLID_580_" class="st0" d="M557.5,168.2h-9.6l-1.9,4.5h-3.7l8.7-19.3h3.5l8.7,19.3h-3.7L557.5,168.2z M556.3,165.4
				l-3.6-8.4l-3.6,8.4H556.3z"/>
			<path id="XMLID_578_" class="st0" d="M567.2,153.4h3.6v16.2h10.1v3h-13.6V153.4z"/>
			<path id="XMLID_576_" class="st0" d="M599.8,169.6v3h-14.4v-19.3h14.1v3h-10.5v5h9.3v2.9h-9.3v5.3H599.8z"/>
			<path id="XMLID_574_" class="st0" d="M622.5,153.4v19.3h-2.9l-10.6-13v13h-3.5v-19.3h2.9l10.6,13v-13H622.5z"/>
			<path id="XMLID_572_" class="st0" d="M633.3,156.4h-6.4v-3h16.3v3h-6.4v16.2h-3.6V156.4z"/>
		</g>
	</g>
	<g id="XMLID_1_">
		<path id="XMLID_303_" class="st0" d="M154.8,50.7l-18.2,19.6l17.3-20.6l0.1,0c-8.4-2.8-17.7-4.3-27.9-4.4
			c-4.4-0.2-8.9,1.3-13.6,4.3c-5.7,3.5-9.2,8.2-10.3,14.1c-1.7,8.2,3.8,15.9,16.4,22.9c0.2,0.1,0.4,0.2,0.6,0.4
			c0.1,0,0.1,0.1,0.2,0.1l0,0c1.1,0.4,3.6,2.5,3.8,2.7l0,0c7.1,4.9,21.9,15,25.4,19.3c8.2,9.7,11.8,21.8,10.8,36.3
			c-1,16.8-9.1,31.6-24.2,44.3c-12.1,10.2-27.5,15.4-46.4,15.4c-10.2,0-20.7-1.8-31.5-5.3c-3.4-0.9-7.7-2.3-12.9-4.1l0,0
			c0,0-8.8,3.7-20.9,10.8c8.1,5.4,17.9,8.5,28.3,8.5h100.2c28.4,0,51.7-23.3,51.7-51.7v-44.1L154.8,50.7z"/>
		<path id="XMLID_692_" class="st0" d="M203.6,51.7c0-14-5.7-26.8-14.8-36.1c-2,2-4.6,4.7-7.7,7.9c0,0,0,0,0.1,0L156.4,49l0,0
			l-1.6,1.7l48.8,68.4V51.7z"/>
		<path id="XMLID_690_" class="st0" d="M92.9,114.2l-7.4-4.3c-4.5-2.7-7.6-4.8-9.1-6.3c-7.7-8.4-11.3-17.1-11.6-26
			c-0.9-30.2,19.2-46.8,24.9-51c13.6-10.2,28.5-15.4,44.6-15.4c7.7,0,16.8,1.4,27.2,4.3c6.8,1.9,12.1,3.8,15.9,5.7c0,0,0,0,0,0
			c2.6-0.7,7.2-3.8,10.7-6.4C178.9,5.7,166,0,151.9,0H51.7C23.3,0,0,23.3,0,51.7v111.5c0,17,8.3,32.1,21.1,41.6l37.3-33.9v0l5.5-5.6
			c8.5,2.6,17.3,4,26.2,4c8.2,0,15.2-1.7,20.9-5.1c6.9-4.2,10.3-10.1,10.3-17.7c0-10-13.3-21.9-23.1-28.2l-23.5,25.4L97,117.7
			c0,0,0,0,0,0l26-27.9c-0.2-0.2-2.7-2.3-3.8-2.7L92.9,114.2z"/>
		<linearGradient id="XMLID_3_" gradientUnits="userSpaceOnUse" x1="110.7652" y1="156.3428" x2="226.2538" y2="64.4116">
			<stop  offset="0" style="stop-color:#FFFFFF;stop-opacity:0"/>
			<stop  offset="0.2691" style="stop-color:#FCFEFE;stop-opacity:0.2691"/>
			<stop  offset="0.4353" style="stop-color:#F4FBFA;stop-opacity:0.4353"/>
			<stop  offset="0.5737" style="stop-color:#E5F5F4;stop-opacity:0.5737"/>
			<stop  offset="0.6967" style="stop-color:#D1EDEB;stop-opacity:0.6967"/>
			<stop  offset="0.8096" style="stop-color:#B6E3DF;stop-opacity:0.8096"/>
			<stop  offset="0.9136" style="stop-color:#96D7D1;stop-opacity:0.9136"/>
			<stop  offset="1" style="stop-color:#75CAC3"/>
		</linearGradient>
		<path id="XMLID_693_" class="st1" d="M154.8,50.7l-18.2,19.6l17.3-20.6l0.1,0c-8.4-2.8-17.7-4.3-27.9-4.4
			c-4.4-0.2-8.9,1.3-13.6,4.3c-5.7,3.5-9.2,8.2-10.3,14.1c-1.7,8.2,3.8,15.9,16.4,22.9c0.2,0.1,0.4,0.2,0.6,0.4
			c0.1,0,0.1,0.1,0.2,0.1l0,0c1.1,0.4,3.6,2.5,3.8,2.7l0,0c7.1,4.9,21.9,15,25.4,19.3c8.2,9.7,11.8,21.8,10.8,36.3
			c-1,16.8-9.1,31.6-24.2,44.3c-12.1,10.2-27.5,15.4-46.4,15.4c-10.2,0-20.7-1.8-31.5-5.3c-3.4-0.9-7.7-2.3-12.9-4.1l0,0
			c0,0-8.8,3.7-20.9,10.8c8.1,5.4,17.9,8.5,28.3,8.5h100.2c28.4,0,51.7-23.3,51.7-51.7v-44.1L154.8,50.7z"/>
	</g>
</g>
</svg>
